<?xml version="1.0" encoding="UTF-8" standalone="no"?><!DOCTYPE svg PUBLIC "-//W3C//DTD SVG 1.1//EN" "http://www.w3.org/Graphics/SVG/1.1/DTD/svg11.dtd"><svg width="100%" height="100%" viewBox="0 0 2250 2250" version="1.1" xmlns="http://www.w3.org/2000/svg" xmlns:xlink="http://www.w3.org/1999/xlink" xml:space="preserve" xmlns:serif="http://www.serif.com/" style="fill-rule:evenodd;clip-rule:evenodd;stroke-linecap:round;stroke-linejoin:round;stroke-miterlimit:1.5;"><path d="M1845.7,1088.7l-1441.41,-0l0,677.902c0,39.73 22.657,75.982 58.37,93.392c0,0.001 0.001,0.001 0.001,0.001c426.719,208.033 926.319,203.819 1349.47,-11.384c2.034,-1.034 3.985,-2.026 5.852,-2.975c17.007,-8.65 27.719,-26.115 27.719,-45.196l-0,-711.74Z" style="fill:#6e6d5b;stroke:#cec9ad;stroke-width:8.33px;"/><path d="M2155.42,1037.66c25.256,-16.604 40.098,-45.114 39.213,-75.326c-0.885,-30.212 -17.37,-57.805 -43.555,-72.902c-221.823,-127.892 -717.281,-413.549 -926.145,-533.97c-61.852,-35.661 -138.02,-35.661 -199.872,0c-208.864,120.421 -704.322,406.078 -926.145,533.97c-26.185,15.097 -42.67,42.69 -43.555,72.902c-0.885,30.212 13.957,58.722 39.213,75.326c216.581,142.384 705.16,463.583 920.511,605.158c66.712,43.858 153.112,43.858 219.824,0c215.351,-141.575 703.93,-462.774 920.511,-605.158Z" style="fill:url(#_Linear1);stroke:#cec9ad;stroke-width:8.33px;"/><defs><linearGradient id="_Linear1" x1="0" y1="0" x2="1" y2="0" gradientUnits="userSpaceOnUse" gradientTransform="matrix(0,-1743.38,1743.38,0,1132.68,1852.15)"><stop offset="0" style="stop-color:#403e2c;stop-opacity:1"/><stop offset="0.5" style="stop-color:#6e6d5b;stop-opacity:1"/><stop offset="1" style="stop-color:#cec9ad;stop-opacity:1"/></linearGradient></defs></svg>